<?xml version="1.0" standalone="no"?><!DOCTYPE svg PUBLIC "-//W3C//DTD SVG 1.1//EN" "http://www.w3.org/Graphics/SVG/1.1/DTD/svg11.dtd"><svg t="1737183027984" class="icon" viewBox="0 0 1024 1024" version="1.1" xmlns="http://www.w3.org/2000/svg" p-id="3513" xmlns:xlink="http://www.w3.org/1999/xlink" width="200" height="200"><path d="M247.627294 990.535948a267.712418 33.464052 0 1 0 535.424837 0 267.712418 33.464052 0 1 0-535.424837 0Z" fill="#E4E4E4" p-id="3514"></path><path d="M945.566954 515.83498c12.736418-9.349856 12.736418-29.160575 12.736419-46.046536 0-22.929569 0-51.487791-32.045177-51.48779-1.519268 0-3.031843 0.100392-4.450719 0.200784l-37.908078-155.05234 16.276915-51.179922c0-14.182065-11.625412-25.740549-25.881098-25.740549h-19.409151v-54.198379L721.75268 0H227.328c-32.145569 0-58.227451 25.941333-58.227451 57.919582v128.702745h-19.40915c-14.255686 0-25.881098 11.565176-25.881098 25.747242l16.176523 51.481098-38.015164 155.5543a51.742118 51.742118 0 0 0-3.942065-0.200784h-0.100392c-31.436131 0-31.436131 28.056261-31.436131 50.577569 0 16.397386 0.100392 35.599059 12.127372 44.948915L26.764549 727.200627c0 14.175373 11.625412 25.740549 25.881098 25.740549h116.454902v25.740549c0 7.141229 1.412183 13.974588 3.841673 20.413072A58.127059 58.127059 0 0 0 227.328 836.601307h569.330614a58.160523 58.160523 0 0 0 54.184994-36.904157 58.455007 58.455007 0 0 0 4.042457-21.015425V752.941176h116.454902c14.255686 0 25.881098-11.565176 25.881098-25.740549l-51.655111-211.358954z m-820.746039-19.40915a37.787608 37.787608 0 0 1-26.891712 11.063216c-15.058824 0-18.090667-7.435712-18.498928-32.573909v-5.133385c0-29.160575 2.42949-37.707294 18.498928-37.707294h1.010614c20.419765 0.501961 36.997856 17.093438 36.997856 37.613594-0.100392 10.152993-3.942065 19.603242-11.116758 26.744471z m671.837699 327.305203H227.321307a45.444183 45.444183 0 0 1-41.040314-26.041726 44.373333 44.373333 0 0 1-4.243241-19.007582V57.919582c0-24.83702 20.319373-45.042614 45.283555-45.042615h489.070432l2.630274 2.610196V6.438484l129.392105 128.702745h-9.09553l2.630275 2.610196v640.9303a45.464261 45.464261 0 0 1-4.551111 19.609935 45.310327 45.310327 0 0 1-40.739138 25.439373z m148.700863-348.715504v0.602353c0 1.505882 0 2.911373-0.100392 4.323556v0.200784c0 1.505882-0.100392 2.911373-0.200784 4.216471v0.107085c-1.010614 16.993046-4.852288 23.826405-18.806798 23.826405-21.423686 0-38.818301-17.294222-38.8183-38.610824 0-20.814641 16.685176-37.807686 37.41281-38.510431 0.501961 0 0.903529-0.100392 1.40549-0.100392 17.495007 0 19.107974 10.561255 19.107974 38.617516v5.327477z" fill="#D3E0E9" p-id="3515"></path><path d="M782.536784 135.502641c-35.57898 0-64.498614-28.819242-64.498614-64.271059V15.995817l-2.623582-2.610196h-487.571242C202.959477 13.385621 182.707033 33.571137 182.707033 58.374693v719.851921c0 6.826667 1.512575 13.251765 4.229856 18.980811A45.076078 45.076078 0 0 0 227.850039 823.215686h567.583791a45.169778 45.169778 0 0 0 40.611974-25.405908 44.065464 44.065464 0 0 0 4.537725-19.583164V138.112837l-2.623581-2.610196h-55.423164zM99.75634 432.161464H98.752418C82.716444 432.154771 80.307033 440.587712 80.307033 469.821908v5.12c0 2.710588 0.100392 5.220392 0.200784 7.529412v0.401569c0.100392 2.30902 0.301176 4.316863 0.501961 6.224314v0.401568c0.200784 1.914144 0.508654 3.614118 0.803137 5.126693 0 0.100392 0 0.200784 0.107085 0.301177 0.401569 1.505882 0.803137 2.911373 1.311791 4.21647 2.616889 6.123922 7.154614 8.332549 15.420235 8.332549 10.173072 0 19.650092-3.915294 26.804706-11.043137a36.810458 36.810458 0 0 0 10.982902-26.610615c0.200784-20.587085-16.223373-37.258876-36.676601-37.660444z m824.875503-1.003922c-0.501961 0-0.903529 0.100392-1.40549 0.100393-20.667399 0.702745-37.29234 17.66902-37.29234 38.463581 0 21.283137 17.334379 38.563974 38.69783 38.563974 8.165229 0 12.796654-2.409412 15.520628-7.830588v0.093699c0.100392-0.100392 0.100392-0.301176 0.200784-0.50196 0.301176-0.501961 0.501961-1.204706 0.702745-1.807059 0.200784-0.602353 0.401569-1.204706 0.602353-1.907451 0.207477-0.602353 0.307869-1.305098 0.508654-2.007843 0.200784-0.803137 0.301176-1.706667 0.401568-2.610196 0.100392-0.702745 0.200784-1.305098 0.307869-2.007844 0.200784-1.606275 0.301176-3.413333 0.501961-5.327477v-0.100392c0.100392-1.305098 0.100392-2.710588 0.200785-4.216471v-0.200784c0-1.40549 0.100392-2.81098 0.100392-4.316863v-5.822745c0-27.922405-1.606275-38.563974-19.047739-38.563974z" fill="#FFFFFF" p-id="3516"></path><path d="M849.980235 133.856209L722.816837 6.69281v8.941595L841.038641 133.856209zM717.094484 13.385621v55.362928c0 35.538824 28.819242 64.431686 64.271058 64.431686H836.594614L717.094484 13.385621zM394.982902 249.461124c-18.505621 0-33.57783 14.958431-33.57783 33.464052 0 18.391843 14.958431 33.350275 33.350274 33.464053 18.505621 0.107085 33.464052-14.851346 33.57783-33.356968 0.107085-18.498928-14.851346-33.464052-33.350274-33.571137z m232.92319 0c-18.505621 0-33.571137 14.958431-33.571138 33.464052 0 18.391843 14.958431 33.350275 33.350275 33.464053 18.505621 0.107085 33.464052-14.851346 33.57783-33.356968 0.107085-18.498928-14.851346-33.464052-33.356967-33.571137z" fill="#D3E1EA" p-id="3517"></path><path d="M281.091346 351.372549c0 9.236078 13.486013 16.732026 30.117647 16.732026s30.117647-7.495948 30.117648-16.732026-13.486013-16.732026-30.117648-16.732026-30.117647 7.495948-30.117647 16.732026zM682.659974 351.372549c0 9.236078 13.486013 16.732026 30.117647 16.732026s30.117647-7.495948 30.117647-16.732026-13.486013-16.732026-30.117647-16.732026-30.117647 7.495948-30.117647 16.732026z" fill="#EBF2F5" p-id="3518"></path><path d="M481.87566 435.03268a40.156863 33.464052 90 1 0 66.928105 0 40.156863 33.464052 90 1 0-66.928105 0Z" fill="#D3E1EA" p-id="3519"></path><path d="M488.568471 444.395922c4.85898 10.83566 11.417935 24.428758 26.657464 24.428758 15.460392 0 22.755556-14.008052 26.972026-23.752785-4.062536-10.795503-14.248993-17.227294-26.811399-17.227294-11.538405 0-22.113046 6.425098-26.818091 16.551321z" fill="#EBF2F5" p-id="3520"></path></svg>